HIERARCHY
ROOT hip
{
	OFFSET 0.000000 0.000000 0.000000
	CHANNELS 6 Xposition Yposition Zposition Xrotation Zrotation Yrotation 
	JOINT abdomen
	{
		OFFSET 0.000000 3.422050 0.000000
		CHANNELS 3 Xrotation Zrotation Yrotation 
		JOINT chest
		{
			OFFSET 0.000000 8.486693 -0.684411
			CHANNELS 3 Xrotation Zrotation Yrotation 
			JOINT neck
			{
				OFFSET 0.000000 10.266162 -0.273764
				CHANNELS 3 Xrotation Zrotation Yrotation 
				JOINT head
				{
					OFFSET 0.000000 3.148285 0.000000
					CHANNELS 3 Xrotation Zrotation Yrotation 
					End Site
					{
						OFFSET 0.000000 3.148289 0.000000
					}
				}
			}
			JOINT lCollar
			{
				OFFSET 3.422053 6.707223 -0.821293
				CHANNELS 3 Yrotation Zrotation Xrotation 
				JOINT lShldr
				{
					OFFSET 3.285171 0.000000 0.000000
					CHANNELS 3 Zrotation Yrotation Xrotation 
					JOINT lForeArm
					{
						OFFSET 10.129278 0.000000 0.000000
						CHANNELS 3 Yrotation Zrotation Xrotation 
						JOINT lHand
						{
							OFFSET 8.486692 0.000000 0.000000
							CHANNELS 3 Zrotation Yrotation Xrotation 
							End Site
							{
								OFFSET 4.106464 0.000000 0.000000
							}
						}
					}
				}
			}
			JOINT rCollar
			{
				OFFSET -3.558935 6.707223 -0.821293
				CHANNELS 3 Yrotation Zrotation Xrotation 
				JOINT rShldr
				{
					OFFSET -3.148289 0.000000 0.000000
					CHANNELS 3 Zrotation Yrotation Xrotation 
					JOINT rForeArm
					{
						OFFSET -10.266159 0.000000 0.000000
						CHANNELS 3 Yrotation Zrotation Xrotation 
						JOINT rHand
						{
							OFFSET -8.349810 0.000000 0.000000
							CHANNELS 3 Zrotation Yrotation Xrotation 
							End Site
							{
								OFFSET -4.106464 0.000000 0.000000
							}
						}
					}
				}
			}
		}
	}
	JOINT lThigh
	{
		OFFSET 5.338403 -1.642589 1.368821
		CHANNELS 3 Xrotation Zrotation Yrotation 
		JOINT lShin
		{
			OFFSET -2.053232 -20.121670 0.000000
			CHANNELS 3 Xrotation Zrotation Yrotation 
			JOINT lFoot
			{
				OFFSET 0.000000 -19.300380 -1.231939
				CHANNELS 3 Xrotation Yrotation Zrotation 
				End Site
				{
					OFFSET 0.000000 -2.463878 4.653993
				}
			}
		}
	}
	JOINT rThigh
	{
		OFFSET -5.338403 -1.642589 1.368821
		CHANNELS 3 Xrotation Zrotation Yrotation 
		JOINT rShin
		{
			OFFSET 2.053232 -20.121670 0.000000
			CHANNELS 3 Xrotation Zrotation Yrotation 
			JOINT rFoot
			{
				OFFSET 0.000000 -19.300380 -1.231939
				CHANNELS 3 Xrotation Yrotation Zrotation 
				End Site
				{
					OFFSET 0.000000 -2.463878 4.653993
				}
			}
		}
	}
}
MOTION
Frames: 13
Frame Time: 0.033264
0.000000 43.528500 0.000000 0.000000 0.000000 0.000000 0.000000 0.000000 0.000000 0.000000 0.000000 0.000000 0.000000 0.000000 0.000000 0.000000 0.000000 0.000000 0.000000 0.000000 0.000000 0.000000 0.000000 0.000000 0.000000 0.000000 0.000000 0.000000 0.000000 0.000000 0.000000 0.000000 0.000000 0.000000 0.000000 0.000000 0.000000 0.000000 0.000000 0.000000 0.000000 0.000000 0.000000 0.000000 0.000000 0.000000 0.000000 0.000000 0.000000 0.000000 0.000000 0.000000 0.000000 0.000000 0.000000 0.000000 0.000000 0.000000 0.000000 0.000000 
0.000000 6.189011 0.952190 -82.000397 0.000000 0.000000 -8.528577 -0.020871 -0.021238 -6.806825 -0.149973 -0.725032 30.330132 -6.335780 -5.001236 -8.335419 15.997399 3.999570 3.837014 -14.863377 15.186639 -59.100521 -52.218445 -12.055323 2.999032 -15.192506 34.948418 -45.614079 7.723719 -23.032572 -3.840051 14.859422 15.186844 59.092735 52.214500 -12.060863 -3.001329 15.188094 34.948444 45.611305 -7.727596 -23.033819 -13.629470 19.058418 45.478439 45.353935 1.264164 -0.462944 18.174501 -0.263672 0.886846 -13.627502 -19.062138 -45.482399 45.353977 -1.266047 0.458370 18.174477 0.259660 -0.889746 
0.000000 6.257096 0.952190 -82.000397 0.000000 0.000000 -8.195278 -0.020810 -0.021300 -7.748496 -0.149835 -0.725000 30.330132 -6.335780 -5.001236 -8.690889 15.849251 3.894970 4.356906 -14.485534 15.950959 -59.653023 -52.361279 -11.623974 2.967849 -15.384003 34.939640 -45.614079 7.723719 -23.032572 -4.379022 14.462263 15.944472 59.658440 52.359428 -11.618078 -2.969219 15.385219 34.937912 45.611305 -7.727597 -23.033819 -13.527303 18.908466 45.079254 45.353935 1.264164 -0.462944 18.148695 0.006823 0.549083 -13.624156 -18.819914 -44.812710 45.353977 -1.266047 0.458370 18.169325 -0.225755 -0.361869 
0.000000 6.325182 0.952190 -82.000397 0.000000 0.000000 -7.861930 -0.020750 -0.021362 -8.691187 -0.149697 -0.724971 30.330135 -6.335780 -5.001236 -9.045877 15.700454 3.791385 4.871173 -14.100657 16.711157 -60.209122 -52.501568 -11.188926 2.936603 -15.575496 34.930733 -45.614079 7.723718 -23.032572 -4.912104 14.057864 16.697617 60.227924 52.501698 -11.171438 -2.937041 15.582351 34.927258 45.611305 -7.727595 -23.033821 -13.424095 18.759153 44.680050 45.353939 1.264164 -0.462944 18.124470 0.277528 0.211360 -13.617828 -18.577599 -44.143559 45.353985 -1.266047 0.458370 18.168646 -0.711502 0.166332 
0.000000 6.393268 0.952190 -82.000412 0.000000 0.000000 -7.528544 -0.020689 -0.021423 -9.634782 -0.149558 -0.724944 30.330132 -6.335780 -5.001236 -9.400378 15.551021 3.688820 5.379711 -13.708893 17.467144 -60.768822 -52.639294 -10.750211 2.905299 -15.767000 34.921722 -45.614079 7.723720 -23.032572 -5.439193 13.646366 17.446186 60.801117 52.641251 -10.720986 -2.904792 15.779486 34.916477 45.611305 -7.727598 -23.033821 -13.319857 18.610485 44.280796 45.353935 1.264164 -0.462944 18.101841 0.548425 -0.126328 -13.608512 -18.335230 -43.474945 45.353977 -1.266047 0.458370 18.172451 -1.197502 0.694893 
0.000000 6.461354 0.952190 -82.000397 0.000000 0.000000 -7.195126 -0.020627 -0.021484 -10.579140 -0.149419 -0.724919 30.330132 -6.335779 -5.001235 -9.754393 15.400964 3.587277 5.882415 -13.310371 18.218821 -61.332073 -52.774426 -10.307867 2.873929 -15.958498 34.912582 -45.614079 7.723719 -23.032572 -5.960192 13.227923 18.190100 61.378029 52.778091 -10.266765 -2.872470 15.976619 34.905571 45.611305 -7.727593 -23.033817 -13.214602 18.462484 43.881546 45.353931 1.264164 -0.462944 18.080801 0.819497 -0.463986 -13.596234 -18.092873 -42.806915 45.353973 -1.266047 0.458370 18.180744 -1.683676 1.223849 
0.000000 6.529439 0.952190 -82.000397 0.000000 0.000000 -6.861680 -0.020565 -0.021545 -11.524145 -0.149279 -0.724897 30.330132 -6.335780 -5.001236 -10.107913 15.250288 3.486761 6.379194 -12.905240 18.966108 -61.898823 -52.906898 -9.861925 2.842499 -16.150002 34.903328 -45.614079 7.723719 -23.032572 -6.475010 12.802695 18.929281 61.958580 52.912155 -9.808820 -2.840077 16.173754 34.894535 45.611305 -7.727596 -23.033819 -13.108334 18.315153 43.482269 45.353935 1.264164 -0.462944 18.061359 1.090727 -0.801619 -13.581000 -17.850573 -42.139492 45.353977 -1.266047 0.458370 18.193542 -2.169944 1.753235 
0.000000 6.597525 0.952190 -82.000397 0.000000 0.000000 -6.528210 -0.020503 -0.021605 -12.469666 -0.149138 -0.724877 30.330132 -6.335780 -5.001236 -10.460937 15.099006 3.387272 6.869960 -12.493654 19.708937 -62.469067 -53.036739 -9.412442 2.811003 -16.341503 34.893955 -45.614079 7.723719 -23.032572 -6.983563 12.370831 19.663647 62.542706 53.043392 -9.347181 -2.807611 16.370886 34.883366 45.611301 -7.727596 -23.033817 -13.001066 18.168514 43.083008 45.353935 1.264164 -0.462944 18.043512 1.362099 -1.139233 -13.562818 -17.608381 -41.472691 45.353977 -1.266047 0.458370 18.210838 -2.656226 2.283085 
0.000000 6.665611 0.952190 -82.000397 0.000000 0.000000 -6.194723 -0.020441 -0.021665 -13.415572 -0.148998 -0.724859 30.330135 -6.335780 -5.001236 -10.813456 14.947120 3.288813 7.354633 -12.075764 20.447229 -63.042694 -53.163845 -8.959447 2.779445 -16.533007 34.884464 -45.614079 7.723719 -23.032572 -7.485775 11.932502 20.393145 63.130394 53.171803 -8.881912 -2.775071 16.568016 34.872078 45.611305 -7.727596 -23.033819 -12.892797 18.022566 42.683723 45.353935 1.264164 -0.462944 18.027262 1.633594 -1.476833 -13.541703 -17.366352 -40.806538 45.353977 -1.266047 0.458370 18.232658 -3.142442 2.813435 
0.000000 6.733697 0.952190 -82.000397 0.000000 0.000000 -5.861225 -0.020378 -0.021725 -14.361736 -0.148857 -0.724844 30.330132 -6.335780 -5.001236 -11.165479 14.794654 3.191390 7.833136 -11.651719 21.180929 -63.619717 -53.288219 -8.502993 2.747820 -16.724499 34.874851 -45.614079 7.723719 -23.032572 -7.981574 11.487865 21.117714 63.721588 53.297337 -8.413054 -2.742457 16.765146 34.860661 45.611305 -7.727597 -23.033819 -12.783552 17.877337 42.284477 45.353935 1.264164 -0.462944 18.012606 1.905196 -1.814425 -13.517671 -17.124537 -40.141068 45.353977 -1.266047 0.458370 18.259001 -3.628512 3.344321 
0.000000 6.801783 0.952190 -82.000412 0.000000 0.000000 -5.527721 -0.020314 -0.021784 -15.308030 -0.148715 -0.724831 30.330132 -6.335781 -5.001236 -11.516988 14.641603 3.095001 8.305402 -11.221678 21.909979 -64.200066 -53.409855 -8.043136 2.716131 -16.915995 34.865120 -45.614079 7.723720 -23.032572 -8.470895 11.037089 21.837297 64.316200 53.419949 -7.940682 -2.709768 16.962269 34.849110 45.611309 -7.727597 -23.033819 -12.673328 17.732828 41.885242 45.353939 1.264164 -0.462944 17.999552 2.176886 -2.152015 -13.490732 -16.882982 -39.476288 45.353985 -1.266047 0.458370 18.289873 -4.114356 3.875778 
0.000000 6.869868 0.952190 -82.000397 0.000000 0.000000 -5.194218 -0.020251 -0.021843 -16.254324 -0.148574 -0.724820 30.330132 -6.335780 -5.001235 -11.867990 14.487989 2.999651 8.771363 -10.785799 22.634319 -64.783676 -53.528683 -7.579928 2.684374 -17.107485 34.855267 -45.614075 7.723718 -23.032570 -8.953678 10.580341 22.551847 64.914207 53.539639 -7.464839 -2.677002 17.159384 34.837433 45.611305 -7.727596 -23.033819 -12.562141 17.589054 41.486042 45.353935 1.264164 -0.462944 17.988100 2.448650 -2.489607 -13.460905 -16.641748 -38.812244 45.353977 -1.266047 0.458370 18.325285 -4.599892 4.407840 
0.000000 6.937954 0.952190 -82.000397 0.000000 0.000000 -4.860720 -0.020187 -0.021902 -17.200485 -0.148432 -0.724811 30.330132 -6.335780 -5.001236 -12.218473 14.333813 2.905343 9.230968 -10.344249 23.353916 -65.370522 -53.644695 -7.113424 2.652550 -17.298962 34.845287 -45.614075 7.723720 -23.032570 -9.429873 10.117797 23.261332 65.515533 53.656334 -6.985586 -2.644160 17.356493 34.825626 45.611305 -7.727595 -23.033815 -12.449997 17.446026 41.086872 45.353931 1.264164 -0.462944 17.978243 2.720468 -2.827207 -13.428202 -16.400871 -38.148937 45.353973 -1.266047 0.458370 18.365248 -5.085042 4.940544 
